<mxfile host="Electron" agent="Mozilla/5.0 (Windows NT 10.0; Win64; x64) AppleWebKit/537.36 (KHTML, like Gecko) draw.io/28.1.2 Chrome/138.0.7204.243 Electron/37.4.0 Safari/537.36" version="28.1.2">
  <diagram id="M_ppzp-7nRYfIJwU8l9Q" name="ページ1">
    <mxGraphModel dx="383" dy="507" grid="1" gridSize="10" guides="1" tooltips="1" connect="1" arrows="1" fold="1" page="1" pageScale="1" pageWidth="827" pageHeight="1169" math="0" shadow="0">
      <root>
        <mxCell id="0" />
        <mxCell id="1" parent="0" />
        <mxCell id="2LTdTC2IB3Qon7dRFdwO-1" value="&lt;div&gt;&lt;br&gt;&lt;/div&gt;" style="html=1;whiteSpace=wrap;labelPosition=center;verticalLabelPosition=middle;align=center;verticalAlign=middle;" parent="1" vertex="1">
          <mxGeometry x="430" y="70" width="250" height="230" as="geometry" />
        </mxCell>
        <mxCell id="Ca1wiO1qeCS-tGpo-9b--8" style="rounded=0;orthogonalLoop=1;jettySize=auto;html=1;endArrow=none;endFill=0;exitX=0;exitY=0.5;exitDx=0;exitDy=0;" parent="1" source="Ca1wiO1qeCS-tGpo-9b--2" edge="1">
          <mxGeometry relative="1" as="geometry">
            <mxPoint x="300" y="150" as="targetPoint" />
          </mxGeometry>
        </mxCell>
        <mxCell id="Ca1wiO1qeCS-tGpo-9b--2" value="時刻に応じた挨拶をする" style="ellipse;whiteSpace=wrap;html=1;" parent="1" vertex="1">
          <mxGeometry x="450" y="170" width="210" height="50" as="geometry" />
        </mxCell>
        <mxCell id="Ca1wiO1qeCS-tGpo-9b--7" style="rounded=0;orthogonalLoop=1;jettySize=auto;html=1;exitX=0;exitY=0.5;exitDx=0;exitDy=0;endArrow=none;endFill=0;" parent="1" source="Ca1wiO1qeCS-tGpo-9b--4" edge="1">
          <mxGeometry relative="1" as="geometry">
            <mxPoint x="300" y="150" as="targetPoint" />
          </mxGeometry>
        </mxCell>
        <mxCell id="Ca1wiO1qeCS-tGpo-9b--4" value="名前を変更する" style="ellipse;whiteSpace=wrap;html=1;" parent="1" vertex="1">
          <mxGeometry x="450" y="110" width="210" height="50" as="geometry" />
        </mxCell>
        <mxCell id="Ca1wiO1qeCS-tGpo-9b--5" value="ユーザー" style="shape=umlActor;verticalLabelPosition=bottom;verticalAlign=top;html=1;" parent="1" vertex="1">
          <mxGeometry x="250" y="105" width="50" height="90" as="geometry" />
        </mxCell>
        <mxCell id="SJa5OOR-qc5LKOseHF1G-1" value="RoboDog" style="text;html=1;align=center;verticalAlign=middle;resizable=0;points=[];autosize=1;strokeColor=none;fillColor=none;" vertex="1" parent="1">
          <mxGeometry x="295" y="48" width="70" height="30" as="geometry" />
        </mxCell>
        <mxCell id="SJa5OOR-qc5LKOseHF1G-2" style="rounded=0;orthogonalLoop=1;jettySize=auto;html=1;endArrow=none;endFill=0;exitX=0;exitY=0.5;exitDx=0;exitDy=0;" edge="1" parent="1" source="SJa5OOR-qc5LKOseHF1G-3">
          <mxGeometry relative="1" as="geometry">
            <mxPoint x="300" y="150" as="targetPoint" />
          </mxGeometry>
        </mxCell>
        <mxCell id="SJa5OOR-qc5LKOseHF1G-3" value="２つの整数の足し算をする" style="ellipse;whiteSpace=wrap;html=1;" vertex="1" parent="1">
          <mxGeometry x="450" y="230" width="210" height="50" as="geometry" />
        </mxCell>
        <mxCell id="SJa5OOR-qc5LKOseHF1G-4" value="システム内部" style="text;html=1;align=center;verticalAlign=middle;whiteSpace=wrap;rounded=0;" vertex="1" parent="1">
          <mxGeometry x="510" y="75" width="90" height="30" as="geometry" />
        </mxCell>
      </root>
    </mxGraphModel>
  </diagram>
</mxfile>
